<?xml version="1.0" encoding="utf-8"?>
<!-- Generator: Adobe Illustrator 22.0.0, SVG Export Plug-In . SVG Version: 6.00 Build 0)  -->
<svg version="1.1" id="Capa_1" xmlns="http://www.w3.org/2000/svg" xmlns:xlink="http://www.w3.org/1999/xlink" x="0px" y="0px"
	 viewBox="-49 141 512 512" style="enable-background:new -49 141 512 512;" xml:space="preserve">
<style type="text/css">
	.st0{fill:#2B2B2B;}
	.st1{fill:#B4171C;}
</style>
<path class="st0" d="M440.9,252.2c-14.3-14.3-33.2-22.1-53.4-22.1c-3.7,0-7.3,0.3-10.9,0.8c3.4-23.3-4.2-47.1-21.3-64.3
	c-14.3-14.3-33.2-22.1-53.4-22.1c-20.2,0-39.1,7.9-53.4,22.1c-13.4,13.4-21.2,31.1-22,50c-0.7,15.7,3.4,31,11.8,44l-167,167
	c-12.9-9.5-28.5-14.7-44.8-14.7c-20.2,0-39.1,7.9-53.4,22.1C-41.1,449.3-49,468.2-49,488.4s7.9,39.1,22.1,53.4
	c14.3,14.3,33.2,22.1,53.4,22.1c3.7,0,7.3-0.3,10.9-0.8c-3.4,23.3,4.2,47.1,21.3,64.3c14.3,14.3,33.2,22.1,53.4,22.1
	c20.2,0,39.1-7.9,53.4-22.1c14.1-14.1,21.9-32.8,22.1-52.7c0.2-16.6-5-32.4-14.7-45.5l165.9-165.9c13.6,11.5,30.6,17.8,48.6,17.8
	c20.2,0,39.1-7.9,53.4-22.1C470.4,329.6,470.4,281.7,440.9,252.2z M426.8,344.9c-10.5,10.5-24.4,16.3-39.2,16.3s-28.8-5.8-39.2-16.3
	c-0.7-0.7-1.4-1.4-2.1-2.2c-1.8-2-4.4-3.2-7.2-3.3c-2.8-0.1-5.4,1-7.3,2.9L152.3,521.6c-3.9,3.8-3.9,10.1-0.1,14
	c20.8,21.6,20.4,56.5-0.8,77.7c-10.5,10.5-24.4,16.3-39.2,16.3c-14.8,0-28.8-5.8-39.2-16.3c-16-16-20.7-39.7-12-60.6
	c1.6-3.7,0.7-8-2.2-10.9c-1.9-1.9-4.5-2.9-7.1-2.9c-1.3,0-2.6,0.3-3.8,0.8c-6.8,2.8-14,4.2-21.3,4.2c-14.8,0-28.8-5.8-39.2-16.3
	C-23.2,517.1-29,503.2-29,488.4c0-14.8,5.8-28.8,16.3-39.2c10.5-10.5,24.4-16.3,39.2-16.3c14.4,0,28,5.5,38.4,15.4
	c3.9,3.8,10.1,3.7,14-0.1l179.5-179.5c3.6-3.6,3.9-9.5,0.6-13.4c-18.3-22.1-16.8-54.2,3.6-74.5c10.5-10.5,24.4-16.3,39.2-16.3
	c14.8,0,28.8,5.8,39.2,16.3c16,16,20.7,39.7,12,60.6c-1.6,3.7-0.7,8,2.2,10.9c2.9,2.9,7.2,3.7,10.9,2.2c6.8-2.8,14-4.2,21.3-4.2
	c14.8,0,28.8,5.8,39.2,16.3C448.4,288,448.4,323.2,426.8,344.9z"/>
<path class="st1" d="M156.1,392.2l-46.6,46.6c-3.9,3.9-3.9,10.2,0,14.1c2,2,4.5,2.9,7.1,2.9c2.6,0,5.1-1,7.1-2.9l46.6-46.6
	c3.9-3.9,3.9-10.2,0-14.1C166.4,388.3,160,388.3,156.1,392.2z"/>
<path class="st1" d="M177.4,370.9l-0.2,0.2c-3.9,3.9-3.9,10.2,0,14.1c2,2,4.5,2.9,7.1,2.9s5.1-1,7.1-2.9l0.2-0.2
	c3.9-3.9,3.9-10.2,0-14.1C187.6,367,181.3,367,177.4,370.9z"/>
</svg>
