<?xml version="1.0" encoding="utf-8"?>
<!-- Generator: Adobe Illustrator 22.0.0, SVG Export Plug-In . SVG Version: 6.00 Build 0)  -->
<svg version="1.1" id="Capa_1" xmlns="http://www.w3.org/2000/svg" xmlns:xlink="http://www.w3.org/1999/xlink" x="0px" y="0px"
	 viewBox="-49 141 512 512" style="enable-background:new -49 141 512 512;" xml:space="preserve">
<style type="text/css">
	.st0{fill:#2B2B2B;}
	.st1{fill:#B4171C;}
</style>
<circle class="st0" cx="342" cy="243" r="14"/>
<path class="st1" d="M444.3,238.4c-21.6,0-40.2,1.5-58.1-16.4L363,198.8c-10.5-10.5-24.7-16.4-39.6-16.4h-65.1H258
	c-14.9,0-29.1,5.9-39.7,16.4l-0.3,0.3l-43.7,43.7c-9.1,9.1-14.2,21.5-14.2,34.3v14.7c0,26.6,21.1,54,47.4,57.9
	c2.9,0.4,5.8,0.6,8.6,0.6v3.7C170,380.6,75.7,434,57,452.6c-15.7,15.7-27.6,40.6-27.6,65.7c0,11.2,1.5,22.6,8,37.5l-54.6-0.1
	c-15.5,0-28,12.5-28,28s12.5,28,28,28h233c13.9,0,23.5-14.9,16.8-27c-6-10.8-15.4-19.4-26.8-24.4c6.4-12.7,10.1-23.3,26.2-23.3h21.4
	v56c0,10.3,8.4,18.7,18.7,18.7h69.4c14.3,0,23.6-15.6,16.3-28c-8.6-14.7-23.8-25.1-41.5-27.3l4.2-33.2c22.4-13.8,39-36.6,43.5-63.1
	c6.4-37.1-9.4-70.5-35.9-90.5v-37.7h56c20.5,0,46-14.4,56.5-32c4.5-7.4,22.6-34.3,22.5-42.7C462.9,247.3,455.2,238.4,444.3,238.4z
	 M215.9,331.5c-22.8,0-37.2-19.3-37.2-39.2v-15.1c0-7.8,3-15.4,8.8-21.1l43.7-43.7c5.9-5.9,13.7-9.8,22.2-10.8v92.8
	C253.3,314.3,237.3,331.5,215.9,331.5z M-17.2,592.9c-5.1,0-9.3-4.2-9.3-9.3s4.2-9.3,9.3-9.3c67.6,0.2,50.8,0.1,66,0.2
	c6.9,9.1,8,10.6,18.6,18.5H-17.2z M424.5,290.1c-7.6,12.6-25.8,22.9-40.5,22.9h-47.6c-12.1,0-22.4-7.8-26.3-18.7h-19.4
	c2.4,11.7,9.3,21.7,18.7,28.5v55.9c26.9,20.3,42.1,43.5,36.2,78.1c-4.7,27.5-21.4,42.1-42.5,55.1c-4.5,35.9-5.8,46.7-7.6,60.6
	c18.8,2.3,35.8,2.4,46,20.4c-39,0-30.5,0-69.4,0c0-44.7,0-48.3,0-93.3h-18.7v18.7c-4.9,0-8.9,0-21.4,0c-5.8,0-11.1,1.5-16.2,3.7
	c0.9-25.4-8.3-50.9-27-69.6l-13.2,13.2c27.7,27.7,26,68.2,10.2,92.9l-5.6,11.1c14.5,6.3,28.4,10.2,35.6,23.5h-93.1
	c-41.3,0-74-33.3-74.5-73.6c-0.4-22.3,9.7-45.4,30.2-60.7c20.5-15.3,134.1-81,156.3-93.8c0-5.1,0-13.1,0-17.9
	c21.7-7.7,37.3-28.2,37.3-52.6v-93.3h51.5c9.9,0,19.4,3.9,26.4,10.9l23.2,23.2c13.3,13.3,30.8,20.7,49.4,21.5
	c2,6.8,6.6,12.4,12.6,15.7L424.5,290.1z"/>
<g>
	<path class="st0" d="M444.3,238.4c-21.6,0-40.2,1.5-58.1-16.4L363,198.8c-10.5-10.5-24.7-16.4-39.6-16.4h-52.6l1.1,18.7h51.5
		c9.9,0,19.4,3.9,26.4,10.9l23.2,23.2c13.3,13.3,30.8,20.7,49.4,21.5c2,6.8,6.6,12.4,12.6,15.7l-10.6,17.7
		c-7.6,12.6-25.8,22.9-40.5,22.9h-47.6c-12.1,0-22.4-7.8-26.3-18.7h-19.4c2.4,11.7,9.3,21.7,18.7,28.5v55.9
		c26.9,20.3,42.1,43.5,36.2,78.1c-4.7,27.5-21.4,42.1-42.5,55.1c-4.5,35.9-5.8,46.7-7.6,60.6c18.8,2.3,35.8,2.4,46,20.4
		c-39,0-30.5,0-69.4,0c0-44.7,0-48.3,0-93.3h-18.7v18.7c-4.9,0-8.9,0-21.4,0c-5.8,0-11.1,1.5-16.2,3.7c0.9-25.4-8.3-50.9-27-69.6
		l-13.2,13.2c27.7,27.7,26,68.2,10.2,92.9l-5.6,11.1c14.5,6.3,28.4,10.2,35.6,23.5h-93.1c-41.3,0-74-33.3-74.5-73.6
		c-0.4-22.3,9.7-45.4,30.2-60.7c20.5-15.3,134.1-81,156.3-93.8c0-5.1,0-13,0-17.9c-1.6,0.4-4.3,1-8.9,2.2c-3.5,0.9-6.8,1.4-9.7,1.7
		v3.2C170,380.6,75.7,434,57,452.6c-15.7,15.7-27.6,40.6-27.6,65.7c0,11.2,1.5,22.6,8,37.5l-0.6,0c2.6,6.1,6,12.5,10.6,18.7
		c0.4,0,0.9,0,1.3,0c6.9,9.1,8,10.6,18.6,18.5h-1.5c15.1,11.2,31.5,16.4,41.8,18.7h108.1c13.9,0,23.5-14.9,16.8-27
		c-6-10.8-15.4-19.4-26.8-24.4c6.4-12.7,10.1-23.3,26.2-23.3h21.4v56c0,10.3,8.4,18.7,18.7,18.7h69.4c14.3,0,23.6-15.6,16.3-28
		c-8.6-14.7-23.8-25.1-41.5-27.3l4.2-33.2c22.4-13.8,39-36.6,43.5-63.1c6.4-37.1-9.4-70.5-35.9-90.5v-37.7h56
		c20.5,0,46-14.4,56.5-32c4.5-7.4,22.6-34.3,22.5-42.7C462.9,247.3,455.2,238.4,444.3,238.4z"/>
</g>
</svg>
