<?xml version="1.0" encoding="utf-8"?>
<!-- Generator: Adobe Illustrator 22.0.0, SVG Export Plug-In . SVG Version: 6.00 Build 0)  -->
<svg version="1.1" id="Capa_1" xmlns="http://www.w3.org/2000/svg" xmlns:xlink="http://www.w3.org/1999/xlink" x="0px" y="0px"
	 viewBox="-49 141 512 512" style="enable-background:new -49 141 512 512;" xml:space="preserve">
<style type="text/css">
	.st0{fill:#B4171C;}
	.st1{fill:#2B2B2B;}
</style>
<ellipse transform="matrix(0.7071 -0.7071 0.7071 0.7071 -232.9818 300.1017)" class="st0" cx="245.8" cy="431.3" rx="11.6" ry="11.6"/>
<path class="st0" d="M273.8,459.1c-2.2-3.3-5.8-5.3-9.8-5.3c-2.3,0-4.4,0.7-6.3,1.9c-5.4,3.5-6.9,10.7-3.4,16.1
	c14.8,22.8,28.9,38,36,45c2.2,2.2,5.1,3.4,8.2,3.4c3.1,0,6.1-1.2,8.3-3.4c4.5-4.6,4.5-11.9-0.1-16.4
	C300.3,493.9,287.5,480.1,273.8,459.1z"/>
<g>
	<path class="st1" d="M334.2,471.6c-8.7-8.7-30.6-33-47.8-72.5c-13.4-32.1-44.5-52.8-79.3-52.8c-34.8,0-65.9,20.7-79.3,52.8
		c-21.5,49.2-50.8,75.4-51.1,75.7l-0.1,0.1c-18.2,16.3-28.7,39.6-28.7,64c0,14.8,3.4,28.6,10.2,41.1c6.7,12.4,16.3,22.9,28.6,31
		c15.6,10.4,33.8,15.9,52.6,15.9c8.5,0,16.9-1.1,25.1-3.4c12.7-3.5,27.3-5.3,42.4-5.3c15.3,0,30.2,1.9,43,5.5
		c8.3,2.3,16.8,3.5,25.4,3.5c18.5,0,36.5-5.4,52-15.7c25-16.5,39.3-43,39.3-72.7C366.8,512.5,354.9,488,334.2,471.6z M341.6,538.9
		c0,21.4-10,39.7-28,51.7c-11.4,7.5-24.6,11.5-38.1,11.5c-6.3,0-12.5-0.9-18.6-2.6c-15-4.2-32.2-6.4-49.8-6.4
		c-17.3,0-34.3,2.1-49.1,6.2c-6,1.7-12.2,2.5-18.5,2.5c-13.8,0-27.2-4-38.6-11.7c-17.8-11.9-27.6-30-27.6-51.2
		c0-17.2,7.4-33.7,20.2-45.2c1.4-1.2,33.8-30.1,57.6-84.6l0-0.1l0.1-0.1c9.4-22.7,31.4-37.4,56-37.4c24.6,0,46.6,14.7,56,37.4
		l0.1,0.1l0,0.1c19.2,44,43.9,71.2,53.7,80.9c0.4,0.4,0.7,0.7,1.1,1C333,502.6,341.6,520.1,341.6,538.9z"/>
	<path class="st1" d="M93.7,311.1c11.9,13.5,26.7,20.9,41.5,20.9c17.2,0,32.4-10.1,43-28.6c9.6-16.8,13.6-39.1,11-61.1
		c-2.4-20-10-38.7-21.6-52.9c-12-14.7-27-22.8-42.3-22.8c-1.7,0-3.5,0.1-5.2,0.3c-15.4,1.8-29.1,11.9-38.5,28.2
		c-9.6,16.8-13.6,39.1-11,61.1C73.1,277.7,81.3,297.1,93.7,311.1z M103.5,207.8c3.4-5.9,10.7-15.9,21.7-15.9
		c8.2,0,17.1,5.6,24.4,15.4c7.7,10.3,12.9,23.8,14.5,37.9c2,16.8-0.9,33.4-7.9,45.6c-5.9,10.4-13.4,15.9-21.6,15.9
		c-17.7,0-35.6-24.4-39-53.4C93.6,236.6,96.5,220,103.5,207.8z"/>
	<path class="st1" d="M85.6,406.7c2.9-17.9-0.6-37.6-9.9-55.6c-9.3-18-23.4-32.3-39.6-40.2c-9.1-4.5-18.4-6.8-27.5-6.8
		c-8.2,0-16.1,1.9-23.3,5.6c-15.2,7.8-25.3,22.8-28.4,42.1c-2.9,17.9,0.6,37.6,9.9,55.6c9.3,18,23.4,32.3,39.6,40.2
		c9.1,4.5,18.4,6.8,27.5,6.8c8.2,0,16-1.9,23.2-5.6C72.4,440.9,82.5,425.9,85.6,406.7z M60.8,402.6c-1.8,11.2-7.2,19.6-15.1,23.7
		c-3.5,1.8-7.5,2.7-11.7,2.7c-5.3,0-10.8-1.4-16.4-4.2c-11.5-5.6-21.5-16-28.3-29.2c-6.8-13.2-9.4-27.4-7.4-40
		c1.8-11.2,7.2-19.6,15.1-23.7l0.2-0.1l0.1-0.1l0,0c3.4-1.7,7.2-2.6,11.3-2.6c5.2,0,10.9,1.4,16.4,4.2c11.5,5.6,21.5,16,28.3,29.2
		C60.2,375.8,62.8,390,60.8,402.6z"/>
	<path class="st1" d="M279.7,332.2c30.8,0,58.9-33.2,63.9-75.6c3.3-27.8-4.2-55.7-19.4-72.9c-9.7-11-21.9-16.8-35.2-16.8
		c-30.8,0-58.9,33.2-63.9,75.6c-3.3,27.8,4.2,55.7,19.4,72.9C254.2,326.4,266.4,332.2,279.7,332.2z M311.8,210.1
		c6.2,12,8.6,27.9,6.8,43.5c-3.4,28.4-21.4,53.4-38.7,53.4c-0.7,0-1.5,0-2.2-0.1l-0.1,0c-7.9-0.9-15.4-7.4-20.7-17.8
		c-6.2-12-8.6-27.9-6.8-43.5c1.7-14.2,6.8-27.6,14.5-37.9c7.3-9.8,16.2-15.4,24.4-15.4c0.8,0,1.4,0,2,0.1
		C302.2,193.5,309.3,205.1,311.8,210.1z"/>
	<path class="st1" d="M457,351.8c-2.3-14.2-8.5-26.3-17.9-34.8c-9.3-8.4-20.9-12.8-33.7-12.8c-9.1,0-18.4,2.3-27.5,6.7
		c-16.3,8-30.3,22.3-39.6,40.2c-9.3,18-12.8,37.7-9.9,55.6c2.3,14.3,8.5,26.4,18,34.9c9.2,8.3,20.9,12.7,33.6,12.7
		c9.1,0,18.4-2.3,27.5-6.7c16.3-8,30.4-22.3,39.6-40.2C456.4,389.4,459.9,369.7,457,351.8z M396.4,425c-5.6,2.8-11.1,4.2-16.4,4.2
		c-4.2,0-8.2-0.9-11.7-2.7l-0.2-0.1c-7.8-4.1-13.1-12.5-14.9-23.6c-4.2-25.9,12.2-57.6,35.7-69.2c5.6-2.8,11.1-4.2,16.4-4.2
		c13.9,0,24.1,10.1,26.8,26.5C436.3,381.7,420,413.4,396.4,425z"/>
</g>
</svg>
